# xmcd
#
# Track frame offsets: 
#        150
#        21025
#        36515
#        54142
#        69547
#        91390
#        111612
#        128875
#        142992
#        154285
#        166685
#        191425
#
# Disc length: 2797 seconds
#
# Revision: 6
# Processed by: cddbd v1.5.2PL0 Copyright (c) Steve Scherf et al.
# Submitted via: ExactAudioCopy v0.95a4
#
DISCID=a00aeb0c
DTITLE=Shaver - Unshaven: Shaver Live At Smith's Olde Bar
DYEAR=1995
DGENRE=Country
TTITLE0=The Hottest Thing In Town
TTITLE1=Good News Blues
TTITLE2=Georgia On A Fast Train
TTITLE3=Honky Tonk Heroes
TTITLE4=Honey Bee
TTITLE5=Ride Me Down Easy
TTITLE6=Love You 'Til The Cows Come Home
TTITLE7=Live Forever
TTITLE8=Black Rose
TTITLE9=Old Chunk Of Coal
TTITLE10=Sweet Mama
TTITLE11=You Asked Me To
EXTD=Mario´s Musik
EXTT0=
EXTT1=
EXTT2=
EXTT3=
EXTT4=
EXTT5=
EXTT6=
EXTT7=
EXTT8=
EXTT9=
EXTT10=
EXTT11=
PLAYORDER=
